# xmcd
#
# Track frame offsets:
#        150
#        21187
#        42320
#        61513
#        83257
#        105474
#        125845
#        144867
#        162367
#
# Disc length: 2536 seconds
#
# Revision: 0
# Processed by: cddbd v1.5.1PL2 Copyright (c) Steve Scherf et al.
# Submitted via: ExactAudioCopy v0.95b3
#
DISCID=6509e609
DTITLE=Camel - One Drop Addiction
DYEAR=2005
DGENRE=Ska
TTITLE0=Greed
TTITLE1=Escape
TTITLE2=Take 3
TTITLE3=Blue-Ska
TTITLE4=Pleasant
TTITLE5=Silent Bluster
TTITLE6=Ruin
TTITLE7=Mustang
TTITLE8=Bonus Track
EXTD=
EXTT0=
EXTT1=
EXTT2=
EXTT3=
EXTT4=
EXTT5=
EXTT6=
EXTT7=
EXTT8=
PLAYORDER=
